<svg xmlns="http://www.w3.org/2000/svg" viewBox="0 0 400 400" fill="none">
  <defs>
    <filter id="shdw" x="-8%" y="-8%" width="116%" height="116%">
      <feDropShadow dx="0" dy="3" stdDeviation="8" flood-color="rgba(0,0,0,0.12)"/>
    </filter>
    <clipPath id="outerClip"><circle cx="200" cy="200" r="192"/></clipPath>
    <clipPath id="innerRingClip"><circle cx="200" cy="158" r="108"/></clipPath>
  </defs>

  <!-- ── OUTER CIRCLE BACKGROUND (cream/off-white) ── -->
  <circle cx="200" cy="200" r="196" fill="#f5f2ec" filter="url(#shdw)"/>
  <circle cx="200" cy="200" r="192" fill="#f8f5ef"/>

  <g clip-path="url(#outerClip)">

    <!-- ════════════════════════════════
         INNER DECORATIVE RING
         ════════════════════════════════ -->
    <circle cx="200" cy="158" r="110" fill="#f8f5ef" stroke="#2a7a6a" stroke-width="3.5"/>
    <circle cx="200" cy="158" r="106" fill="none"    stroke="#4a9e8a" stroke-width="1.2"/>
    <circle cx="200" cy="158" r="103" fill="none"    stroke="#8ecfc2" stroke-width="0.8" stroke-dasharray="4,3"/>

    <!-- ════════════════════════════════
         VASE
         ════════════════════════════════ -->
    <!-- Vase body -->
    <path d="M174 205 C164 196 160 182 160 168 C160 150 166 136 178 126
             C186 119 193 117 200 117 C207 117 214 119 222 126
             C234 136 240 150 240 168 C240 182 236 196 226 205
             C220 210 212 214 200 214 C188 214 180 210 174 205 Z"
          fill="#f0ede5" stroke="#3d8a7a" stroke-width="1.8"/>

    <!-- Vase decorative neck band -->
    <path d="M183 126 C186 120 193 117 200 117 C207 117 214 120 217 126"
          fill="#4a9e8a" stroke="#2a7a6a" stroke-width="1"/>
    <!-- Neck teal pattern -->
    <path d="M183 126 Q186 122 200 122 Q214 122 217 126 Q213 130 200 131 Q187 130 183 126 Z"
          fill="#5ab5a0" opacity="0.85"/>
    <!-- Neck dot pattern -->
    <circle cx="191" cy="124" r="1.5" fill="#2a7a6a" opacity="0.8"/>
    <circle cx="196" cy="123" r="1.5" fill="#2a7a6a" opacity="0.8"/>
    <circle cx="200" cy="122.5" r="1.5" fill="#2a7a6a" opacity="0.8"/>
    <circle cx="204" cy="123" r="1.5" fill="#2a7a6a" opacity="0.8"/>
    <circle cx="209" cy="124" r="1.5" fill="#2a7a6a" opacity="0.8"/>

    <!-- Vase rim ellipse -->
    <ellipse cx="200" cy="117" rx="18" ry="5" fill="none" stroke="#3d8a7a" stroke-width="1.8"/>
    <ellipse cx="200" cy="117" rx="18" ry="5" fill="#5ab5a0" opacity="0.5"/>

    <!-- Vase base -->
    <path d="M170 210 C172 216 178 220 200 221 C222 220 228 216 230 210
             L226 205 C220 210 212 214 200 214 C188 214 180 210 174 205 Z"
          fill="#d5cfc4" stroke="#3d8a7a" stroke-width="1.2"/>
    <!-- Base teal band -->
    <ellipse cx="200" cy="214" rx="28" ry="6" fill="none" stroke="#3d8a7a" stroke-width="1.5"/>

    <!-- Vase water/wave scene painted on body -->
    <!-- Water waves at bottom of vase -->
    <path d="M165 195 C172 191 180 193 187 191 C194 189 200 192 207 190
             C214 188 221 191 228 189 C233 188 237 190 238 194"
          stroke="#4a9e8a" stroke-width="1.5" fill="none" stroke-linecap="round"/>
    <path d="M162 200 C170 196 178 198 186 196 C193 194 200 197 208 195
             C215 193 222 196 229 194 C234 193 237 196 238 199"
          stroke="#6dc0b0" stroke-width="1.2" fill="none" stroke-linecap="round"/>

    <!-- Tree trunk inside vase -->
    <path d="M197 210 C197 200 196 190 195 180 C194 170 193 162 192 155"
          stroke="#7b3f1e" stroke-width="3.5" fill="none" stroke-linecap="round"/>
    <path d="M200 210 C200 198 200 186 200 175 C200 164 199 155 198 145"
          stroke="#8b4513" stroke-width="3" fill="none" stroke-linecap="round"/>
    <!-- Roots at base -->
    <path d="M195 208 C190 212 183 214 178 212" stroke="#7b3f1e" stroke-width="2" fill="none" stroke-linecap="round"/>
    <path d="M200 210 C200 215 198 220 194 222" stroke="#7b3f1e" stroke-width="2" fill="none" stroke-linecap="round"/>
    <path d="M203 208 C208 213 215 215 220 213" stroke="#7b3f1e" stroke-width="2" fill="none" stroke-linecap="round"/>

    <!-- ════════════════════════════════
         MAGPIE (left side of vase)
         ════════════════════════════════ -->
    <!-- Body -->
    <ellipse cx="178" cy="186" rx="10" ry="7" fill="#1a1a2e" transform="rotate(-15,178,186)"/>
    <!-- White belly -->
    <ellipse cx="179" cy="187" rx="6" ry="4" fill="#f5f5f0" transform="rotate(-15,179,187)"/>
    <!-- Blue wing sheen -->
    <path d="M172 182 C176 180 182 181 184 184 C181 184 176 184 172 182 Z"
          fill="#1565c0" opacity="0.8"/>
    <!-- Head -->
    <circle cx="170" cy="181" r="6.5" fill="#1a1a2e"/>
    <!-- White cheek patch -->
    <ellipse cx="169" cy="182" rx="3" ry="2" fill="#f5f5f0" opacity="0.9"/>
    <!-- Beak -->
    <path d="M164 180 L161 179 L164 181.5 Z" fill="#333"/>
    <!-- Eye -->
    <circle cx="167" cy="179" r="1.5" fill="white"/>
    <circle cx="167" cy="179" r="0.7" fill="#0d1b2a"/>
    <!-- Tail -->
    <path d="M187 189 C193 193 198 196 200 193 C198 189 193 186 187 188 Z"
          fill="#1565c0" opacity="0.85"/>

    <!-- ════════════════════════════════
         TIGER (right side of vase)
         ════════════════════════════════ -->
    <!-- Body -->
    <ellipse cx="218" cy="190" rx="11" ry="8" fill="#e8830a" transform="rotate(10,218,190)"/>
    <!-- Tiger stripes -->
    <path d="M213 184 C212 188 211 193 212 197" stroke="#5d2e0c" stroke-width="2" fill="none" stroke-linecap="round" opacity="0.85"/>
    <path d="M217 183 C216 187 215 192 216 196" stroke="#5d2e0c" stroke-width="2" fill="none" stroke-linecap="round" opacity="0.85"/>
    <path d="M221 184 C221 188 220 193 221 196" stroke="#5d2e0c" stroke-width="1.5" fill="none" stroke-linecap="round" opacity="0.85"/>
    <!-- Head -->
    <circle cx="209" cy="184" r="8" fill="#e8830a"/>
    <!-- Head stripes -->
    <path d="M207 178 C206 182 206 187" stroke="#5d2e0c" stroke-width="1.5" fill="none" stroke-linecap="round" opacity="0.8"/>
    <path d="M211 178 C212 182 212 187" stroke="#5d2e0c" stroke-width="1.5" fill="none" stroke-linecap="round" opacity="0.8"/>
    <!-- Snout -->
    <ellipse cx="209" cy="187" rx="4.5" ry="3" fill="#ffd180"/>
    <!-- Nose -->
    <ellipse cx="209" cy="185.5" rx="1.5" ry="1" fill="#c45000"/>
    <!-- Eyes -->
    <circle cx="206" cy="183" r="1.8" fill="#f9a825"/>
    <circle cx="212" cy="183" r="1.8" fill="#f9a825"/>
    <circle cx="206" cy="183" r="0.8" fill="#1a1a2e"/>
    <circle cx="212" cy="183" r="0.8" fill="#1a1a2e"/>
    <!-- Ears -->
    <path d="M204 178 L202 174 L207 177 Z" fill="#e8830a" stroke="#5d2e0c" stroke-width="0.8"/>
    <path d="M214 178 L216 174 L213 177 Z" fill="#e8830a" stroke="#5d2e0c" stroke-width="0.8"/>
    <!-- Legs -->
    <line x1="213" y1="197" x2="212" y2="205" stroke="#c45000" stroke-width="3" stroke-linecap="round"/>
    <line x1="220" y1="198" x2="220" y2="206" stroke="#c45000" stroke-width="3" stroke-linecap="round"/>
    <!-- Tail curl -->
    <path d="M228 186 C234 183 238 186 236 191 C234 195 229 195 227 192"
          stroke="#e8830a" stroke-width="2.5" fill="none" stroke-linecap="round"/>

    <!-- ════════════════════════════════
         CAMELLIA BRANCHES & FLOWERS
         ════════════════════════════════ -->
    <!-- Main branches from top of vase -->
    <path d="M195 145 C192 130 186 114 178 100 C172 90 164 82 155 76"
          stroke="#7b3f1e" stroke-width="3" fill="none" stroke-linecap="round"/>
    <path d="M200 140 C200 124 200 108 200 94 C200 84 200 74 202 64"
          stroke="#8b4513" stroke-width="3" fill="none" stroke-linecap="round"/>
    <path d="M203 145 C208 130 216 114 224 100 C230 90 238 82 246 76"
          stroke="#7b3f1e" stroke-width="3" fill="none" stroke-linecap="round"/>

    <!-- Sub-branches left -->
    <path d="M183 118 C174 112 162 108 150 108"
          stroke="#8b4513" stroke-width="2" fill="none" stroke-linecap="round"/>
    <path d="M178 104 C168 96 155 90 142 88"
          stroke="#8b4513" stroke-width="2" fill="none" stroke-linecap="round"/>
    <path d="M170 90 C160 82 148 78 136 80"
          stroke="#7b3f1e" stroke-width="1.8" fill="none" stroke-linecap="round"/>

    <!-- Sub-branches right -->
    <path d="M217 118 C226 112 238 108 250 108"
          stroke="#8b4513" stroke-width="2" fill="none" stroke-linecap="round"/>
    <path d="M222 104 C232 96 245 90 258 88"
          stroke="#8b4513" stroke-width="2" fill="none" stroke-linecap="round"/>
    <path d="M230 90 C240 82 252 78 264 80"
          stroke="#7b3f1e" stroke-width="1.8" fill="none" stroke-linecap="round"/>

    <!-- ── LEAVES ── -->
    <ellipse cx="155" cy="108" rx="11" ry="5" fill="#2d6a4f" transform="rotate(-20,155,108)"/>
    <ellipse cx="148" cy="92"  rx="10" ry="4.5" fill="#40916c" transform="rotate(-10,148,92)"/>
    <ellipse cx="140" cy="78"  rx="10" ry="4.5" fill="#2d6a4f" transform="rotate(-5,140,78)"/>
    <ellipse cx="250" cy="108" rx="11" ry="5"   fill="#2d6a4f" transform="rotate(20,250,108)"/>
    <ellipse cx="258" cy="92"  rx="10" ry="4.5" fill="#40916c" transform="rotate(10,258,92)"/>
    <ellipse cx="264" cy="78"  rx="10" ry="4.5" fill="#2d6a4f" transform="rotate(5,264,78)"/>
    <ellipse cx="186" cy="115" rx="9"  ry="4"   fill="#1b4332" transform="rotate(-40,186,115)"/>
    <ellipse cx="178" cy="100" rx="9"  ry="4"   fill="#40916c" transform="rotate(-30,178,100)"/>
    <ellipse cx="214" cy="115" rx="9"  ry="4"   fill="#1b4332" transform="rotate(40,214,115)"/>
    <ellipse cx="222" cy="100" rx="9"  ry="4"   fill="#40916c" transform="rotate(30,222,100)"/>
    <ellipse cx="200" cy="80"  rx="9"  ry="4"   fill="#2d6a4f" transform="rotate(0,200,80)"/>
    <ellipse cx="194" cy="68"  rx="8"  ry="3.5" fill="#40916c" transform="rotate(-15,194,68)"/>
    <ellipse cx="206" cy="68"  rx="8"  ry="3.5" fill="#40916c" transform="rotate(15,206,68)"/>

    <!-- ── CAMELLIA FLOWERS (red) ── -->
    <!-- Flower helper: 5 petals + centre -->
    <!-- Flower A - top centre -->
    <circle cx="200" cy="58"  r="9"  fill="#c0392b" opacity="0.92"/>
    <circle cx="200" cy="49"  r="7"  fill="#d44333" opacity="0.88"/>
    <circle cx="193" cy="54"  r="7"  fill="#c0392b" opacity="0.88"/>
    <circle cx="207" cy="54"  r="7"  fill="#e05540" opacity="0.88"/>
    <circle cx="193" cy="63"  r="7"  fill="#c0392b" opacity="0.85"/>
    <circle cx="207" cy="63"  r="7"  fill="#d44333" opacity="0.85"/>
    <circle cx="200" cy="58"  r="4"  fill="#f9ca24" opacity="0.9"/>

    <!-- Flower B - top left -->
    <circle cx="155" cy="74"  r="8"  fill="#b03020" opacity="0.92"/>
    <circle cx="155" cy="66"  r="6"  fill="#c0392b" opacity="0.88"/>
    <circle cx="148" cy="71"  r="6"  fill="#b03020" opacity="0.88"/>
    <circle cx="162" cy="71"  r="6"  fill="#d44333" opacity="0.88"/>
    <circle cx="148" cy="79"  r="6"  fill="#b03020" opacity="0.85"/>
    <circle cx="162" cy="79"  r="6"  fill="#c0392b" opacity="0.85"/>
    <circle cx="155" cy="74"  r="3.5" fill="#f9ca24" opacity="0.9"/>

    <!-- Flower C - top right -->
    <circle cx="245" cy="74"  r="8"  fill="#c0392b" opacity="0.92"/>
    <circle cx="245" cy="66"  r="6"  fill="#d44333" opacity="0.88"/>
    <circle cx="238" cy="71"  r="6"  fill="#c0392b" opacity="0.88"/>
    <circle cx="252" cy="71"  r="6"  fill="#e05540" opacity="0.88"/>
    <circle cx="238" cy="79"  r="6"  fill="#b03020" opacity="0.85"/>
    <circle cx="252" cy="79"  r="6"  fill="#c0392b" opacity="0.85"/>
    <circle cx="245" cy="74"  r="3.5" fill="#f9ca24" opacity="0.9"/>

    <!-- Flower D - mid left -->
    <circle cx="138" cy="95"  r="7.5" fill="#c0392b" opacity="0.9"/>
    <circle cx="138" cy="88"  r="5.5" fill="#d44333" opacity="0.85"/>
    <circle cx="131" cy="93"  r="5.5" fill="#b03020" opacity="0.85"/>
    <circle cx="145" cy="93"  r="5.5" fill="#c0392b" opacity="0.85"/>
    <circle cx="131" cy="101" r="5.5" fill="#b03020" opacity="0.82"/>
    <circle cx="145" cy="101" r="5.5" fill="#d44333" opacity="0.82"/>
    <circle cx="138" cy="95"  r="3"  fill="#f9ca24" opacity="0.9"/>

    <!-- Flower E - mid right -->
    <circle cx="262" cy="95"  r="7.5" fill="#b03020" opacity="0.9"/>
    <circle cx="262" cy="88"  r="5.5" fill="#c0392b" opacity="0.85"/>
    <circle cx="255" cy="93"  r="5.5" fill="#b03020" opacity="0.85"/>
    <circle cx="269" cy="93"  r="5.5" fill="#d44333" opacity="0.85"/>
    <circle cx="255" cy="101" r="5.5" fill="#c0392b" opacity="0.82"/>
    <circle cx="269" cy="101" r="5.5" fill="#b03020" opacity="0.82"/>
    <circle cx="262" cy="95"  r="3"  fill="#f9ca24" opacity="0.9"/>

    <!-- Small buds -->
    <circle cx="168" cy="82"  r="5" fill="#d44333" opacity="0.88"/>
    <circle cx="168" cy="78"  r="4" fill="#e05540" opacity="0.82"/>
    <circle cx="168" cy="82"  r="2" fill="#f9ca24" opacity="0.85"/>

    <circle cx="232" cy="82"  r="5" fill="#c0392b" opacity="0.88"/>
    <circle cx="232" cy="78"  r="4" fill="#d44333" opacity="0.82"/>
    <circle cx="232" cy="82"  r="2" fill="#f9ca24" opacity="0.85"/>

    <circle cx="175" cy="64"  r="4.5" fill="#e05540" opacity="0.85"/>
    <circle cx="225" cy="64"  r="4.5" fill="#c0392b" opacity="0.85"/>

    <!-- ════════════════════════════════
         TEXT LABELS
         ════════════════════════════════ -->
    <text x="200" y="254"
          font-family="'Georgia','Times New Roman',Times,serif"
          font-size="17" font-weight="400"
          fill="#1a1a2e" text-anchor="middle" letter-spacing="2">SOHUL AI TRADING</text>

    <text x="200" y="294"
          font-family="'Georgia','Times New Roman',Times,serif"
          font-size="52" font-weight="700"
          fill="#0a0a14" text-anchor="middle" letter-spacing="3">SAS</text>

    <text x="200" y="322"
          font-family="'Arial','Helvetica Neue',Arial,sans-serif"
          font-size="12" font-weight="600"
          fill="#334155" text-anchor="middle" letter-spacing="2">TRADITIONAL VALUES, AI ACCELERATION</text>

  </g>
</svg>
